<svg width="92" height="100" viewBox="0 0 92 100" fill="none" xmlns="http://www.w3.org/2000/svg">
<path d="M4.34772 80.2502C6.96131 80.2502 8.81834 78.8801 8.81834 76.5681C8.81834 74.0335 6.77217 73.3998 4.94953 72.8518C3.07531 72.2867 2.783 71.9099 2.783 71.3619C2.783 70.8824 3.21287 70.4542 4.0726 70.4542C5.17306 70.4542 5.74049 70.9851 6.15316 71.8414L8.47444 70.4885C7.59751 68.7245 6.04999 67.7826 4.0726 67.7826C1.99204 67.7826 0.0318489 69.1184 0.0318489 71.4304C0.0318489 73.7252 1.78571 74.5815 3.57396 75.0782C5.3794 75.5748 6.06719 75.866 6.06719 76.6024C6.06719 77.0648 5.74049 77.5785 4.43369 77.5785C3.07531 77.5785 2.33594 76.9106 1.90607 75.9173L-0.466797 77.2874C0.203796 79.0513 1.8201 80.2502 4.34772 80.2502Z" fill="white"/>
<path d="M14.4859 80.2502C16.171 80.2502 17.6325 79.3767 18.3719 78.0409L16.1194 76.7565C15.8442 77.3559 15.208 77.7155 14.4515 77.7155C13.3338 77.7155 12.5085 76.9106 12.5085 75.7289C12.5085 74.5473 13.3338 73.7424 14.4515 73.7424C15.208 73.7424 15.8271 74.102 16.1194 74.7014L18.3719 73.3998C17.6325 72.0812 16.1538 71.2077 14.4859 71.2077C11.8723 71.2077 9.92928 73.1772 9.92928 75.7289C9.92928 78.2807 11.8723 80.2502 14.4859 80.2502Z" fill="white"/>
<path d="M24.4479 71.2077C23.3131 71.2077 22.4533 71.6188 21.9891 72.2524V68.0223H19.4099V80.0104H21.9891V75.3351C21.9891 74.1191 22.6425 73.5711 23.5882 73.5711C24.4135 73.5711 25.0841 74.0677 25.0841 75.1295V80.0104H27.6633V74.7528C27.6633 72.4408 26.1846 71.2077 24.4479 71.2077Z" fill="white"/>
<path d="M31.7386 76.7565H37.8427C37.9115 76.4311 37.9459 76.0886 37.9459 75.7289C37.9459 73.143 36.0889 71.2077 33.5784 71.2077C30.8617 71.2077 29.0046 73.1772 29.0046 75.7289C29.0046 78.2807 30.8273 80.2502 33.7676 80.2502C35.4011 80.2502 36.6735 79.6507 37.516 78.4862L35.4526 77.3045C35.1088 77.6813 34.5069 77.9553 33.802 77.9553C32.8562 77.9553 32.0653 77.647 31.7386 76.7565ZM31.687 74.8384C31.9277 73.965 32.5811 73.4855 33.5612 73.4855C34.335 73.4855 35.1088 73.8451 35.3839 74.8384H31.687Z" fill="white"/>
<path d="M49.0378 71.2077C47.817 71.2077 47.026 71.653 46.5446 72.338C46.0631 71.6188 45.3065 71.2077 44.2921 71.2077C43.14 71.2077 42.3834 71.653 41.988 72.2353V71.4475H39.4088V80.0104H41.988V75.1809C41.988 74.1705 42.4694 73.5711 43.3292 73.5711C44.1545 73.5711 44.5672 74.1191 44.5672 74.9754V80.0104H47.1464V75.1809C47.1464 74.1705 47.6278 73.5711 48.4876 73.5711C49.3129 73.5711 49.7256 74.1191 49.7256 74.9754V80.0104H52.3048V74.7528C52.3048 72.6121 51.0152 71.2077 49.0378 71.2077Z" fill="white"/>
<path d="M60.3096 71.4475V72.2524C59.7422 71.6016 58.8996 71.2077 57.7476 71.2077C55.4951 71.2077 53.638 73.1772 53.638 75.7289C53.638 78.2807 55.4951 80.2502 57.7476 80.2502C58.8996 80.2502 59.7422 79.8563 60.3096 79.2055V80.0104H62.8888V71.4475H60.3096ZM58.2634 77.8183C57.077 77.8183 56.2173 77.0134 56.2173 75.7289C56.2173 74.4445 57.077 73.6396 58.2634 73.6396C59.4499 73.6396 60.3096 74.4445 60.3096 75.7289C60.3096 77.0134 59.4499 77.8183 58.2634 77.8183Z" fill="white"/>
<path d="M69.8191 73.9136V71.4475H68.048V69.0499L65.4688 69.8206V71.4475H64.0932V73.9136H65.4688V76.9449C65.4688 79.3425 66.4489 80.3529 69.8191 80.0104V77.6813C68.6842 77.7498 68.048 77.6813 68.048 76.9449V73.9136H69.8191Z" fill="white"/>
<path d="M72.569 70.694C73.4115 70.694 74.1165 69.9918 74.1165 69.1526C74.1165 68.3135 73.4115 67.6113 72.569 67.6113C71.7265 67.6113 71.0215 68.3135 71.0215 69.1526C71.0215 69.9918 71.7265 70.694 72.569 70.694ZM71.2794 80.0104H73.8586V71.4475H71.2794V80.0104Z" fill="white"/>
<path d="M79.8727 80.2502C81.5578 80.2502 83.0193 79.3767 83.7587 78.0409L81.5062 76.7565C81.2311 77.3559 80.5949 77.7155 79.8383 77.7155C78.7207 77.7155 77.8953 76.9106 77.8953 75.7289C77.8953 74.5473 78.7207 73.7424 79.8383 73.7424C80.5949 73.7424 81.2139 74.102 81.5062 74.7014L83.7587 73.3998C83.0193 72.0812 81.5406 71.2077 79.8727 71.2077C77.2591 71.2077 75.3161 73.1772 75.3161 75.7289C75.3161 78.2807 77.2591 80.2502 79.8727 80.2502Z" fill="white"/>
<path d="M87.2384 73.9479C87.2384 73.6396 87.5135 73.4683 87.9605 73.4683C88.528 73.4683 88.8719 73.7766 89.1126 74.2219L91.3135 73.0402C90.5913 71.8243 89.3533 71.2077 87.9605 71.2077C86.1723 71.2077 84.5904 72.1497 84.5904 74.0164C84.5904 76.9791 88.8203 76.4825 88.8203 77.4244C88.8203 77.7669 88.5108 77.9553 87.8918 77.9553C87.1352 77.9553 86.6537 77.5957 86.4302 76.9449L84.1949 78.2122C84.8655 79.5994 86.1723 80.2502 87.8918 80.2502C89.7488 80.2502 91.4682 79.411 91.4682 77.4415C91.4682 74.2733 87.2384 74.924 87.2384 73.9479Z" fill="white"/>
<path d="M27.3895 99.8121H34.9551V98.9386H28.6963L32.4275 95.1196C33.6483 93.8865 34.68 92.5679 34.68 91.0779C34.68 88.8516 32.9434 87.6356 31.1035 87.6356C29.5388 87.6356 28.1804 88.3892 27.4583 89.862L28.232 90.3244C28.7994 89.1256 29.7967 88.5091 31.1035 88.5091C32.5651 88.5091 33.7515 89.4338 33.7515 91.0779C33.7515 92.2596 32.8574 93.3899 31.8085 94.4688L27.3895 98.99V99.8121Z" fill="white"/>
<path d="M40.966 100C43.8547 100 45.471 97.5172 45.471 93.818C45.471 90.1189 43.8547 87.6356 40.966 87.6356C38.0773 87.6356 36.461 90.1189 36.461 93.818C36.461 97.5172 38.0773 100 40.966 100ZM40.966 99.127C38.7307 99.127 37.3895 97.1747 37.3895 93.818C37.3895 90.4614 38.7307 88.5091 40.966 88.5091C43.2013 88.5091 44.5425 90.4614 44.5425 93.818C44.5425 97.1747 43.2013 99.127 40.966 99.127Z" fill="white"/>
<path d="M46.9518 99.8121H54.5175V98.9386H48.2586L51.9898 95.1196C53.2107 93.8865 54.2423 92.5679 54.2423 91.0779C54.2423 88.8516 52.5057 87.6356 50.6659 87.6356C49.1011 87.6356 47.7428 88.3892 47.0206 89.862L47.7943 90.3244C48.3618 89.1256 49.3591 88.5091 50.6659 88.5091C52.1274 88.5091 53.3138 89.4338 53.3138 91.0779C53.3138 92.2596 52.4197 93.3899 51.3708 94.4688L46.9518 98.99V99.8121Z" fill="white"/>
<path d="M56.0193 99.8121H63.585V98.9386H57.3261L61.0574 95.1196C62.2782 93.8865 63.3099 92.5679 63.3099 91.0779C63.3099 88.8516 61.5732 87.6356 59.7334 87.6356C58.1686 87.6356 56.8103 88.3892 56.0881 89.862L56.8619 90.3244C57.4293 89.1256 58.4266 88.5091 59.7334 88.5091C61.1949 88.5091 62.3813 89.4338 62.3813 91.0779C62.3813 92.2596 61.4872 93.3899 60.4383 94.4688L56.0193 98.99V99.8121Z" fill="white"/>
<path d="M38.6075 36.3401C37.7476 37.939 37.1504 40.8607 36.9593 42.1216C36.0276 47.0466 37.2459 48.0459 37.3892 48.26C37.5326 48.4742 38.3209 48.6169 39.1092 48.4742C39.8975 48.3314 42.8357 46.3329 43.2657 46.0474C43.6957 45.7619 45.2723 44.4771 47.9238 42.6927C50.5754 40.9082 52.2237 40.8369 53.1553 40.7655C54.0869 40.6941 54.8036 41.1224 55.3052 41.4079C55.8069 41.6934 56.4518 42.1216 57.4551 43.4778C58.4584 44.834 58.6018 45.9046 58.8884 47.3321C59.1751 48.7597 59.1034 51.3292 59.1751 52.1857C59.2467 53.0423 59.82 52.9709 60.035 52.8995C60.25 52.8281 60.3934 52.7568 61.11 51.7575C61.8266 50.7582 63.6899 47.1894 64.3349 44.9053C64.9798 42.6213 65.1948 39.8376 65.1948 39.1238C65.1948 38.4101 65.0515 36.0546 64.1199 34.2702C63.1882 32.4858 62.2566 31.4865 61.0383 30.2731C59.82 29.0597 57.5985 27.7036 55.7352 27.1325C53.8719 26.5615 51.292 26.7757 50.3604 26.9184C49.4288 27.0612 49.6438 26.9898 46.9205 27.8463C44.1973 28.7028 41.9041 31.3438 41.4024 31.9148C40.9008 32.4858 39.6825 34.3416 38.6075 36.3401Z" fill="white"/>
<path d="M46.418 3.86371C44.0675 3.2927 38.6067 3.62579 36.1701 3.86371C33.9342 3.4069 35.2385 2.05551 36.1701 1.43691C37.5317 1.03244 40.9143 0.194956 43.5515 0.0807535C46.848 -0.0619998 50.6462 -0.204753 56.3077 1.43691C61.9691 3.07857 65.1223 5.07712 69.2788 8.07494C73.4353 11.0728 77.4485 16.8543 78.6668 19.9235C79.8851 22.9927 80.96 29.3452 80.5301 33.5564C80.1001 37.7676 79.4551 39.8376 77.9502 43.6205C76.4452 47.4035 72.432 52.8995 70.2821 55.3977C68.1322 57.8958 63.904 61.1078 62.0408 62.3926C60.1775 63.6774 59.0309 63.3918 58.3859 63.3918C57.7409 63.3918 56.666 62.6067 55.7344 61.1078C54.8027 59.6089 55.5194 58.3241 56.1643 57.6817C56.8093 57.0393 60.1059 54.327 62.0408 52.043C63.9757 49.7589 66.4123 45.1194 68.2039 39.8376C69.9955 34.5557 69.4938 31.0582 69.2788 26.7042C69.0638 22.3503 66.1973 16.0691 60.8942 10.7873C55.591 5.50538 49.3563 4.57748 46.418 3.86371Z" fill="white"/>
<path d="M52.7245 22.137C55.3618 23.1648 58.2665 25.563 59.3893 26.6337C60.0772 27.4902 59.3415 27.4664 58.8877 27.3475C58.5532 27.2285 57.5977 26.8907 56.4511 26.4909C55.0178 25.9913 53.5129 25.8486 52.0079 25.8486C50.503 25.8486 49.7147 25.8486 47.2781 26.6337C44.8415 27.4188 42.8349 29.0605 40.685 30.9163C38.5351 32.7721 36.8152 36.9119 36.2419 39.1246C35.6686 41.3373 35.6686 44.6206 35.7402 45.6913C35.8119 46.7619 36.1702 47.8326 36.0985 48.6891C36.0269 49.5456 35.0952 50.0452 34.7369 50.188C34.3786 50.3307 30.4371 50.2594 29.5771 50.188C28.7172 50.1166 26.6389 49.9025 23.629 48.6891C20.6191 47.4757 18.9708 46.4764 16.6059 44.6206C14.241 42.7648 14.456 40.6235 14.671 39.767C14.886 38.9105 15.961 37.4116 16.6059 36.1982C17.2509 34.9848 19.4725 32.0583 21.1208 30.1312C22.769 28.204 25.4922 25.9199 26.8539 24.9207C28.2155 23.9214 32.2287 21.9942 34.3069 21.2805C36.3852 20.5667 39.3234 19.9243 42.8349 19.9957C46.3464 20.067 49.428 20.8522 52.7245 22.137Z" fill="white"/>
<path d="M10.5155 29.4168C10.1142 33.8136 11.3993 37.0541 12.0921 38.1248C13.167 39.6237 13.812 38.9813 14.242 38.4103C14.672 37.8393 15.9619 35.127 16.5352 34.1991C17.1085 33.2712 18.0402 31.8436 20.6201 28.9886C23.2 26.1335 25.5649 24.5632 27.4281 23.0643C29.2914 21.5654 32.2296 20.5661 33.3046 20.0665C34.3795 19.5669 37.5327 18.8531 41.4026 18.7103C45.2724 18.5676 46.7774 19.2814 47.9957 19.5669C49.214 19.8524 52.0089 20.8516 54.5171 22.2078C57.0253 23.564 59.7486 25.4911 60.4652 25.9908C61.1818 26.4904 63.4751 29.06 64.335 30.773C65.195 32.486 64.98 31.9864 65.5533 33.6994C66.1266 35.4125 66.3416 38.1248 66.5566 38.7672C66.7716 39.4096 67.3449 39.4096 67.4883 39.1241C67.6316 38.8386 67.7749 38.1962 68.1332 36.7686C68.4916 35.3411 68.5632 29.9165 68.4916 28.7745C68.4199 27.6324 67.6316 23.7067 67.0583 22.1364C66.485 20.5661 64.9084 17.1401 62.1851 13.4998C59.4619 9.85963 54.7321 7.07594 50.7189 5.79116C46.7057 4.50638 43.5525 4.07812 39.7543 4.07812C35.9561 4.07812 31.4413 5.50566 27.4998 7.07594C23.5583 8.64623 21.1934 10.9303 17.6818 14.4277C14.1703 17.9252 11.0171 23.9208 10.5155 29.4168Z" fill="white"/>
</svg>
